<svg viewBox="0 0 160 160" fill="none" xmlns="http://www.w3.org/2000/svg" width="160" height="160">
  <defs>
    <filter id="pa5s">
      <feDropShadow dx="0" dy="2" stdDeviation="3" flood-color="#000" flood-opacity=".3"/>
    </filter>
  </defs>
  <path d="M22,110 Q50,90 60,80 Q75,65 90,70 Q110,78 120,68 Q135,55 148,50" stroke="rgba(255,255,255,.1)" stroke-width="8" stroke-linecap="round"/>
  <circle cx="22"  cy="110" r="18" fill="#FF8585"  filter="url(#pa5s)" opacity=".9"/>
  <circle cx="45"  cy="98"  r="17" fill="#FFB085"  filter="url(#pa5s)" opacity=".9"/>
  <circle cx="66"  cy="84"  r="17" fill="#B8A9F5"  filter="url(#pa5s)" opacity=".9"/>
  <circle cx="87"  cy="74"  r="17" fill="#5ECFA8"  filter="url(#pa5s)" opacity=".9"/>
  <circle cx="108" cy="68"  r="17" fill="#85CFFF"  filter="url(#pa5s)" opacity=".9"/>
  <circle cx="130" cy="57"  r="17" fill="#5ECFA8"  filter="url(#pa5s)" opacity=".9"/>
  <circle cx="148" cy="44"  r="15" fill="#B8A9F5"  filter="url(#pa5s)" opacity=".9"/>
  <circle cx="142" cy="38" r="4.5" fill="#fff" opacity=".9"/>
  <circle cx="155" cy="40" r="4.5" fill="#fff" opacity=".9"/>
  <circle cx="143" cy="38" r="2"   fill="#1E1E2E"/>
  <circle cx="156" cy="40" r="2"   fill="#1E1E2E"/>
  <circle cx="22"  cy="110" r="5" fill="rgba(255,255,255,.25)"/>
  <circle cx="66"  cy="84"  r="5" fill="rgba(255,255,255,.25)"/>
  <circle cx="108" cy="68"  r="5" fill="rgba(255,255,255,.25)"/>
</svg>
