<svg viewBox="0 0 160 160" fill="none" xmlns="http://www.w3.org/2000/svg" width="160" height="160">
  <defs>
    <radialGradient id="pa1bg" cx="50%" cy="40%" r="60%">
      <stop offset="0%" stop-color="#5ECFA8" stop-opacity=".18"/>
      <stop offset="100%" stop-color="#B8A9F5" stop-opacity=".05"/>
    </radialGradient>
  </defs>
  <rect width="160" height="160" fill="url(#pa1bg)" rx="16"/>
  <g stroke-width="1.8" fill-opacity=".12">
    <circle cx="30" cy="38" r="17" stroke="#5ECFA8" fill="#5ECFA8"/>
    <circle cx="68" cy="38" r="17" stroke="#B8A9F5" fill="#B8A9F5"/>
    <circle cx="106" cy="38" r="17" stroke="#5ECFA8" fill="#5ECFA8"/>
    <circle cx="144" cy="38" r="17" stroke="#FFB085" fill="#FFB085"/>
    <circle cx="11"  cy="72" r="17" stroke="#B8A9F5" fill="#B8A9F5"/>
    <circle cx="49"  cy="72" r="17" stroke="#5ECFA8" fill="#5ECFA8"/>
    <circle cx="87"  cy="72" r="17" stroke="#FF8585" fill="#FF8585"/>
    <circle cx="125" cy="72" r="17" stroke="#B8A9F5" fill="#B8A9F5"/>
    <circle cx="30"  cy="106" r="17" stroke="#FFB085" fill="#FFB085"/>
    <circle cx="68"  cy="106" r="17" stroke="#5ECFA8" fill="#5ECFA8"/>
    <circle cx="106" cy="106" r="17" stroke="#85CFFF" fill="#85CFFF"/>
    <circle cx="144" cy="106" r="17" stroke="#5ECFA8" fill="#5ECFA8"/>
    <circle cx="49"  cy="140" r="17" stroke="#B8A9F5" fill="#B8A9F5"/>
    <circle cx="87"  cy="140" r="17" stroke="#FFB085" fill="#FFB085"/>
    <circle cx="125" cy="140" r="17" stroke="#5ECFA8" fill="#5ECFA8"/>
  </g>
  <circle cx="68"  cy="38"  r="6" fill="#B8A9F5" opacity=".9"/>
  <circle cx="87"  cy="72"  r="6" fill="#FF8585" opacity=".9"/>
  <circle cx="106" cy="106" r="6" fill="#85CFFF" opacity=".9"/>
</svg>
