<svg viewBox="0 0 160 160" fill="none" xmlns="http://www.w3.org/2000/svg" width="160" height="160">
  <defs>
    <linearGradient id="pa3g" x1="0" y1="0" x2="1" y2="1">
      <stop offset="0%" stop-color="#5ECFA8"/>
      <stop offset="50%" stop-color="#85CFFF"/>
      <stop offset="100%" stop-color="#B8A9F5"/>
    </linearGradient>
  </defs>
  <path d="M80,80 C80,68 92,56 104,56 C120,56 136,68 136,84 C136,108 116,128 92,132 C60,138 28,118 20,88 C10,50 36,14 76,8 C122,2 156,34 158,80"
    stroke="url(#pa3g)" stroke-width="3.5" stroke-linecap="round" opacity=".85"/>
  <circle cx="80"  cy="80"  r="6"   fill="#5ECFA8"  opacity=".9"/>
  <circle cx="104" cy="56"  r="5"   fill="#85CFFF"  opacity=".8"/>
  <circle cx="136" cy="84"  r="4.5" fill="#B8A9F5"  opacity=".8"/>
  <circle cx="92"  cy="132" r="4"   fill="#5ECFA8"  opacity=".7"/>
  <circle cx="20"  cy="88"  r="4"   fill="#FFB085"  opacity=".7"/>
  <circle cx="76"  cy="8"   r="3.5" fill="#85CFFF"  opacity=".6"/>
  <circle cx="80" cy="80" r="12" fill="#5ECFA8" opacity=".08"/>
  <circle cx="80" cy="80" r="4"  fill="#5ECFA8" opacity=".7"/>
</svg>
