<svg viewBox="0 0 160 160" fill="none" xmlns="http://www.w3.org/2000/svg" width="160" height="160">
  <defs>
    <radialGradient id="pa7bg" cx="50%" cy="50%" r="60%">
      <stop offset="0%" stop-color="#1E1E30" stop-opacity=".8"/>
      <stop offset="100%" stop-color="#0D0D18" stop-opacity=".3"/>
    </radialGradient>
    <filter id="pa7s">
      <feDropShadow dx="0" dy="2" stdDeviation="2" flood-color="#000" flood-opacity=".4"/>
    </filter>
  </defs>
  <rect width="160" height="160" fill="url(#pa7bg)" rx="12"/>
  <g filter="url(#pa7s)">
    <rect x="17" y="15" width="14" height="20" rx="7" fill="#5ECFA8" opacity=".9"/>
    <rect x="41" y="12" width="14" height="23" rx="7" fill="#FF8585" opacity=".9"/>
    <rect x="65" y="17" width="14" height="18" rx="7" fill="#B8A9F5" opacity=".9"/>
    <rect x="89" y="11" width="14" height="24" rx="7" fill="#FFB085" opacity=".9"/>
    <rect x="113" y="16" width="14" height="19" rx="7" fill="#85CFFF" opacity=".9"/>
    <rect x="137" y="14" width="14" height="21" rx="7" fill="#5ECFA8" opacity=".9"/>
    <rect x="17" y="47" width="14" height="22" rx="7" fill="#B8A9F5" opacity=".9"/>
    <rect x="41" y="44" width="14" height="25" rx="7" fill="#5ECFA8" opacity=".9"/>
    <rect x="65" y="49" width="14" height="20" rx="7" fill="#FF8585" opacity=".9"/>
    <rect x="89" y="43" width="14" height="26" rx="7" fill="#85CFFF" opacity=".9"/>
    <rect x="113" y="48" width="14" height="21" rx="7" fill="#B8A9F5" opacity=".9"/>
    <rect x="137" y="46" width="14" height="23" rx="7" fill="#FFB085" opacity=".9"/>
    <rect x="17" y="80" width="14" height="19" rx="7" fill="#FFB085" opacity=".9"/>
    <rect x="41" y="77" width="14" height="22" rx="7" fill="#B8A9F5" opacity=".9"/>
    <rect x="65" y="82" width="14" height="17" rx="7" fill="#5ECFA8" opacity=".9"/>
    <rect x="89" y="76" width="14" height="23" rx="7" fill="#FF8585" opacity=".9"/>
    <rect x="113" y="81" width="14" height="18" rx="7" fill="#FFB085" opacity=".9"/>
    <rect x="137" y="79" width="14" height="20" rx="7" fill="#85CFFF" opacity=".9"/>
    <rect x="17" y="110" width="14" height="21" rx="7" fill="#85CFFF" opacity=".85"/>
    <rect x="41" y="108" width="14" height="23" rx="7" fill="#5ECFA8" opacity=".85"/>
    <rect x="65" y="113" width="14" height="18" rx="7" fill="#B8A9F5" opacity=".85"/>
    <rect x="89" y="107" width="14" height="24" rx="7" fill="#FFB085" opacity=".85"/>
    <rect x="113" y="112" width="14" height="19" rx="7" fill="#5ECFA8" opacity=".85"/>
    <rect x="137" y="109" width="14" height="22" rx="7" fill="#FF8585" opacity=".85"/>
    <rect x="17" y="142" width="14" height="15" rx="7" fill="#5ECFA8"  opacity=".7"/>
    <rect x="41" y="140" width="14" height="17" rx="7" fill="#B8A9F5"  opacity=".7"/>
    <rect x="65" y="144" width="14" height="13" rx="7" fill="#FFB085"  opacity=".7"/>
    <rect x="89" y="139" width="14" height="18" rx="7" fill="#5ECFA8"  opacity=".7"/>
    <rect x="113" y="143" width="14" height="14" rx="7" fill="#85CFFF" opacity=".7"/>
    <rect x="137" y="141" width="14" height="16" rx="7" fill="#B8A9F5" opacity=".7"/>
  </g>
  <rect x="10" y="152" width="140" height="6" rx="3" fill="rgba(255,255,255,.08)" stroke="rgba(255,255,255,.15)" stroke-width="1"/>
</svg>
