<svg viewBox="0 0 160 160" fill="none" xmlns="http://www.w3.org/2000/svg" width="160" height="160">
  <defs>
    <linearGradient id="pa6g" x1="0" y1="0" x2="1" y2="1">
      <stop offset="0%"   stop-color="#5ECFA8"/>
      <stop offset="50%"  stop-color="#85CFFF"/>
      <stop offset="100%" stop-color="#B8A9F5"/>
    </linearGradient>
    <filter id="pa6glow">
      <feGaussianBlur stdDeviation="2.5" result="b"/>
      <feMerge><feMergeNode in="b"/><feMergeNode in="SourceGraphic"/></feMerge>
    </filter>
  </defs>
  <path d="M20,140 C40,110 60,90 80,80 C100,70 120,70 140,50 C150,40 155,28 150,20"
    stroke="url(#pa6g)" stroke-width="4" stroke-linecap="round" filter="url(#pa6glow)" opacity=".8"/>
  <g fill-opacity=".25" stroke-width="1.2">
    <ellipse cx="32"  cy="128" rx="16" ry="10" fill="#5ECFA8" stroke="#5ECFA8" transform="rotate(-35 32 128)"/>
    <ellipse cx="48"  cy="112" rx="16" ry="10" fill="#5ECFA8" stroke="#5ECFA8" transform="rotate(-45 48 112)"/>
    <ellipse cx="64"  cy="96"  rx="16" ry="10" fill="#85CFFF" stroke="#85CFFF" transform="rotate(-50 64 96)"/>
    <ellipse cx="80"  cy="80"  rx="16" ry="10" fill="#85CFFF" stroke="#85CFFF" transform="rotate(-55 80 80)"/>
    <ellipse cx="96"  cy="68"  rx="15" ry="9"  fill="#B8A9F5" stroke="#B8A9F5" transform="rotate(-60 96 68)"/>
    <ellipse cx="112" cy="58"  rx="15" ry="9"  fill="#B8A9F5" stroke="#B8A9F5" transform="rotate(-65 112 58)"/>
    <ellipse cx="128" cy="44"  rx="14" ry="8"  fill="#5ECFA8" stroke="#5ECFA8" transform="rotate(-70 128 44)"/>
    <ellipse cx="144" cy="32"  rx="12" ry="7"  fill="#5ECFA8" stroke="#5ECFA8" transform="rotate(-75 144 32)"/>
  </g>
  <ellipse cx="150" cy="20" rx="12" ry="10" fill="rgba(94,207,168,.3)" stroke="#5ECFA8" stroke-width="1.5" transform="rotate(-30 150 20)"/>
  <circle cx="153" cy="15" r="2.5" fill="#5ECFA8" opacity=".9"/>
  <circle cx="80" cy="80" r="4" fill="#85CFFF" opacity=".8" filter="url(#pa6glow)"/>
  <circle cx="48" cy="112" r="3" fill="#5ECFA8" opacity=".7"/>
</svg>
